{"title":"Craig.Ferguson.2014.10.23.Shailene.Woodley.FS.PDTV.XviD","uid":11275620,"size":491255808,"categoryP":"video","categoryS":"tv_shows","magnet":"?xt=urn:btih:a956e773a1e000d0b00b697e83449553ce4f05bd&amp;dn=Craig.Ferguson.2014.10.23.Shailene.Woodley.FS.PDTV.XviD&amp;tr=udp%3A%2F%2Ftracker.openbittorrent.com%3A80&amp;tr=udp%3A%2F%2Fopen.demonii.com%3A1337&amp;tr=udp%3A%2F%2Ftracker.coppersurfer.tk%3A6969&amp;tr=udp%3A%2F%2Fexodus.desync.com%3A6969","seeders":1,"leechers":0,"uploader":null,"files":1,"time":1414143565,"description":"\nCraig.Ferguson.2014.10.23.Shailene.Woodley.FS.PDTV.XviD.avi\n\n\n\nVideo\nID                                       : 0\nFormat                                   : MPEG-4 Visual\nFormat profile                           : Advanced Simple@L5\nFormat settings, BVOP                    : 2\nFormat settings, QPel                    : No\nFormat settings, GMC                     : No warppoints\nFormat settings, Matrix                  : Default (H.263)\nMuxing mode                              : Packed bitstream\nCodec ID                                 : XVID\nCodec ID/Hint                            : XviD\nDuration                                 : 39mn 35s\nBit rate                                 : 1 481 Kbps\nWidth                                    : 640 pixels\nHeight                                   : 480 pixels\nDisplay aspect ratio                     : 4:3\nFrame rate                               : 29.970 fps\nColor space                              : YUV\nChroma subsampling                       : 4:2:0\nBit depth                                : 8 bits\nScan type                                : Progressive\nCompression mode                         : Lossy\nBits/(Pixel*Frame)                       : 0.161\nStream size                              : 419 MiB (90%)\nWriting library                          : XviD 1.2.1 (UTC 2008-12-04)\n\nAudio\nID                                       : 1\nFormat                                   : MPEG Audio\nFormat version                           : Version 1\nFormat profile                           : Layer 3\nMode                                     : Joint stereo\nCodec ID                                 : 55\nCodec ID/Hint                            : MP3\nDuration                                 : 39mn 35s\nBit rate mode                            : Variable\nBit rate                                 : 159 Kbps\nMinimum bit rate                         : 32.0 Kbps\nChannel(s)                               : 2 channels\nSampling rate                            : 48.0 KHz\nCompression mode                         : Lossy\nStream size                              : 45.1 MiB (10%)\nAlignment                                : Aligned on interleaves\nInterleave, duration                     : 24 ms (0.72 video frame)\nInterleave, preload duration             : 460 ms\nWriting library                          : LAME3.98r\nEncoding settings                        : -m j -V 3 -q 2 -lowpass 18 --vbr-new -b 32","torrent":{"xt":"urn:btih:a956e773a1e000d0b00b697e83449553ce4f05bd","amp;dn":"Craig.Ferguson.2014.10.23.Shailene.Woodley.FS.PDTV.XviD","amp;tr":["udp%3A%2F%2Ftracker.openbittorrent.com%3A80","udp%3A%2F%2Fopen.demonii.com%3A1337","udp%3A%2F%2Ftracker.coppersurfer.tk%3A6969","udp%3A%2F%2Fexodus.desync.com%3A6969"],"infoHash":"a956e773a1e000d0b00b697e83449553ce4f05bd","infoHashBuffer":{"type":"Buffer","data":[169,86,231,115,161,224,0,208,176,11,105,126,131,68,149,83,206,79,5,189]},"announce":[],"urlList":[]}}